<svg width="1280" height="200" viewBox="0 0 1280 200" fill="none" xmlns="http://www.w3.org/2000/svg">
<rect width="1280" height="200" fill="white"/>
<path d="M967.536 90.6469C967.536 90.6469 970.989 104.795 971.54 107.092C972.183 109.772 973.342 110.759 976.683 110.094L978.839 101.322C979.385 99.1427 979.752 97.5893 980.103 95.3728H980.165C980.412 97.611 980.763 99.1492 981.213 101.329C981.213 101.329 982.091 105.311 982.54 107.403C982.991 109.494 984.245 110.812 987.518 110.094L992.655 90.6484H988.507L986.753 99.0558C986.282 101.503 985.854 103.415 985.524 105.654H985.465C985.166 103.438 984.784 101.601 984.305 99.2167L982.479 90.6484H978.157L976.204 99.0009C975.651 101.539 975.133 103.588 974.804 105.751H974.744C974.407 103.714 973.958 101.139 973.472 98.6817C973.472 98.6817 972.311 92.7076 971.904 90.6484L967.536 90.6489L967.536 90.6469ZM1007.08 90.6469V110.093H1011.02V105.964V90.6459H1007.08V90.6469ZM1062.69 90.6469V104.992C1062.69 106.97 1063.06 108.356 1063.86 109.203C1064.56 109.943 1065.7 110.423 1067.08 110.423C1068.24 110.423 1069.39 110.201 1069.93 109.999L1069.88 106.913C1069.48 107.013 1069.02 107.092 1068.38 107.092C1067.04 107.092 1066.59 106.23 1066.59 104.454V98.9659H1070.03V95.2454H1066.59V90.6469H1062.69L1062.69 90.6469ZM998.25 95.1549C995.796 95.1549 993.848 95.8439 992.786 96.4576L993.563 99.1187C994.535 98.506 996.083 97.9988 997.548 97.9988C999.974 97.9925 1000.37 99.3704 1000.37 100.254V100.463C995.084 100.455 991.745 102.284 991.745 106.013C991.745 108.289 993.445 110.422 996.401 110.422C998.22 110.422 999.742 109.697 1000.65 108.534H1000.74C1000.74 108.534 1001.35 111.059 1004.67 110.094C1004.5 109.043 1004.44 107.922 1004.44 106.573V101.378C1004.44 98.0671 1003.03 95.1549 998.25 95.1549L998.25 95.1549ZM1021.87 95.1549C1019.4 95.1549 1018.29 96.4071 1017.62 97.4696H1017.56V95.4846H1013.79V110.094H1017.76V101.526C1017.76 101.124 1017.81 100.7 1017.95 100.33C1018.28 99.4676 1019.08 98.4586 1020.36 98.4586C1021.96 98.4586 1022.71 99.8129 1022.71 101.767V110.094H1026.68V101.422C1026.68 101.039 1026.73 100.577 1026.84 100.238C1027.17 99.2569 1028.03 98.4584 1029.22 98.4584C1030.85 98.4584 1031.63 99.7892 1031.63 102.089V110.094H1035.6V101.489C1035.6 96.9516 1033.29 95.1549 1030.69 95.1549C1029.54 95.1549 1028.63 95.4438 1027.81 95.9484C1027.12 96.3724 1026.5 96.9748 1025.96 97.768H1025.9C1025.27 96.1936 1023.79 95.1549 1021.87 95.1549L1021.87 95.1549ZM1043.67 95.1549C1041.22 95.1549 1039.27 95.8439 1038.21 96.4576L1038.99 99.1187C1039.96 98.506 1041.51 97.9988 1042.97 97.9988C1045.39 97.9925 1045.79 99.3704 1045.79 100.254V100.463C1040.51 100.455 1037.17 102.284 1037.17 106.013C1037.17 108.289 1038.87 110.422 1041.83 110.422C1043.64 110.422 1045.17 109.697 1046.08 108.534H1046.17C1046.17 108.534 1046.77 111.059 1050.1 110.094C1049.92 109.043 1049.87 107.922 1049.87 106.573V101.378C1049.87 98.0671 1048.45 95.1549 1043.67 95.1549L1043.67 95.1549ZM1060.16 95.1549C1058.64 95.1549 1056.91 96.1361 1056.18 98.2397H1056.07V95.4844H1052.5V110.094H1056.57V102.613C1056.57 102.209 1056.6 101.857 1056.66 101.535C1056.96 99.9676 1058.16 98.9659 1059.88 98.9659C1060.35 98.9659 1060.69 99.017 1061.06 99.0698V95.2452C1060.75 95.1833 1060.54 95.1547 1060.16 95.1547L1060.16 95.1549ZM1000.5 103.052V104.874C1000.5 105.144 1000.47 105.422 1000.4 105.665C1000.09 106.678 999.045 107.533 997.735 107.533C996.642 107.533 995.774 106.913 995.774 105.601C995.774 103.594 997.983 103.039 1000.5 103.052H1000.5ZM1045.92 103.052V104.874C1045.92 105.144 1045.9 105.422 1045.82 105.665C1045.52 106.678 1044.47 107.533 1043.16 107.533C1042.06 107.533 1041.2 106.913 1041.2 105.601C1041.2 103.594 1043.41 103.039 1045.92 103.052H1045.92Z" fill="#2D2D2D"/>
<path d="M1091.38 83.614C1090.1 83.614 1089.09 84.326 1089.09 85.1927L1089.86 93.9596C1089.95 94.4878 1090.6 94.8952 1091.38 94.8952C1092.16 94.8942 1092.81 94.4871 1092.89 93.9596L1093.67 85.1927C1093.67 84.326 1092.66 83.6141 1091.38 83.6141L1091.38 83.614ZM1078.76 90.6465C1078.1 90.6622 1077.35 91.1633 1076.87 91.9925C1076.23 93.0966 1076.34 94.3305 1077.09 94.7634L1085.07 98.479C1085.57 98.6644 1086.24 98.3104 1086.64 97.6346C1086.64 97.6345 1086.64 97.6344 1086.64 97.6343C1087.03 96.9551 1087 96.1915 1086.58 95.8528L1079.38 90.7985C1079.19 90.6901 1078.98 90.6413 1078.76 90.6466L1078.76 90.6465ZM1103.99 90.6465C1103.77 90.6412 1103.56 90.69 1103.38 90.7984L1096.17 95.8527C1095.76 96.1914 1095.73 96.955 1096.12 97.6342L1096.12 97.6345C1096.51 98.3103 1097.19 98.6643 1097.69 98.4789L1105.67 94.7635C1106.42 94.3306 1106.53 93.0967 1105.89 91.9925C1105.41 91.1633 1104.66 90.6622 1104 90.6465L1103.99 90.6465ZM1085.37 102.213C1085.26 102.212 1085.16 102.228 1085.07 102.263L1077.09 105.974C1076.34 106.409 1076.23 107.643 1076.87 108.749C1077.51 109.851 1078.63 110.374 1079.38 109.942L1086.59 104.892C1087 104.549 1087.03 103.786 1086.64 103.107L1086.64 103.109C1086.32 102.556 1085.81 102.219 1085.37 102.213L1085.37 102.213ZM1097.39 102.213C1096.94 102.219 1096.44 102.556 1096.12 103.109L1096.12 103.107C1095.73 103.786 1095.76 104.549 1096.17 104.892L1103.38 109.942C1104.13 110.375 1105.25 109.851 1105.89 108.749C1106.53 107.643 1106.42 106.409 1105.67 105.974L1097.69 102.263C1097.59 102.228 1097.49 102.212 1097.39 102.213L1097.39 102.213ZM1091.38 105.847C1090.59 105.847 1089.95 106.253 1089.86 106.78L1089.09 115.547C1089.09 116.415 1090.1 117.125 1091.38 117.125C1092.66 117.125 1093.67 116.415 1093.67 115.547L1092.89 106.78C1092.81 106.253 1092.16 105.848 1091.38 105.847H1091.38H1091.38Z" fill="#2D2D2D"/>
<path d="M836.01 101.419C836.01 106.454 832.071 110.165 827.236 110.165C822.402 110.165 818.463 106.454 818.463 101.419C818.463 96.3478 822.402 92.6728 827.236 92.6728C832.071 92.6728 836.01 96.3478 836.01 101.419ZM832.169 101.419C832.169 98.2721 829.886 96.1191 827.236 96.1191C824.586 96.1191 822.303 98.2721 822.303 101.419C822.303 104.534 824.586 106.718 827.236 106.718C829.886 106.718 832.169 104.53 832.169 101.419Z" fill="#2D2D2D"/>
<path d="M854.937 101.419C854.937 106.454 850.998 110.165 846.164 110.165C841.329 110.165 837.39 106.454 837.39 101.419C837.39 96.3518 841.329 92.6728 846.164 92.6728C850.998 92.6728 854.937 96.3478 854.937 101.419ZM851.096 101.419C851.096 98.2721 848.813 96.1191 846.164 96.1191C843.514 96.1191 841.231 98.2721 841.231 101.419C841.231 104.534 843.514 106.718 846.164 106.718C848.813 106.718 851.096 104.53 851.096 101.419Z" fill="#2D2D2D"/>
<path d="M873.076 93.2011V108.903C873.076 115.362 869.267 118 864.764 118C860.525 118 857.973 115.165 857.011 112.846L860.355 111.454C860.951 112.878 862.41 114.558 864.76 114.558C867.642 114.558 869.429 112.779 869.429 109.431V108.174H869.294C868.435 109.234 866.779 110.161 864.689 110.161C860.316 110.161 856.309 106.352 856.309 101.45C856.309 96.5134 860.316 92.6728 864.689 92.6728C866.775 92.6728 868.431 93.5994 869.294 94.6286H869.429V93.2051H873.076V93.2011ZM869.701 101.45C869.701 98.3707 867.646 96.1191 865.032 96.1191C862.382 96.1191 860.162 98.3707 860.162 101.45C860.162 104.498 862.382 106.718 865.032 106.718C867.646 106.718 869.701 104.498 869.701 101.45Z" fill="#2D2D2D"/>
<path d="M879.089 83.9976V109.629H875.343V83.9976H879.089Z" fill="#2D2D2D"/>
<path d="M893.687 104.297L896.668 106.285C895.706 107.708 893.388 110.161 889.381 110.161C884.413 110.161 880.702 106.32 880.702 101.415C880.702 96.2138 884.444 92.6688 888.951 92.6688C893.49 92.6688 895.71 96.2808 896.436 98.2327L896.834 99.2264L885.142 104.069C886.037 105.823 887.429 106.718 889.381 106.718C891.337 106.718 892.693 105.756 893.687 104.297ZM884.511 101.151L892.327 97.9054C891.897 96.8131 890.604 96.0521 889.081 96.0521C887.13 96.0521 884.413 97.7753 884.511 101.151Z" fill="#2D2D2D"/>
<path d="M804.283 99.1435V95.433H816.787C816.909 96.0796 816.972 96.8446 816.972 97.6727C816.972 100.457 816.211 103.899 813.758 106.352C811.373 108.836 808.324 110.161 804.287 110.161C796.802 110.161 790.509 104.065 790.509 96.5804C790.509 89.0962 796.802 83 804.287 83C808.427 83 811.377 84.6246 813.593 86.7421L810.974 89.3604C809.385 87.8699 807.232 86.7106 804.283 86.7106C798.817 86.7106 794.543 91.1151 794.543 96.5804C794.543 102.046 798.817 106.45 804.283 106.45C807.828 106.45 809.847 105.027 811.14 103.733C812.189 102.685 812.879 101.186 813.151 99.1396L804.283 99.1435Z" fill="#2D2D2D"/>
<g clip-path="url(#clip0_115_3030)">
<path fill-rule="evenodd" clip-rule="evenodd" d="M676.633 110.371C669.916 115.346 660.181 118 651.799 118C640.046 118 629.465 113.632 621.461 106.367C620.832 105.796 621.395 105.017 622.15 105.462C630.788 110.513 641.47 113.551 652.503 113.551C659.944 113.551 668.13 112.004 675.656 108.794C676.794 108.308 677.744 109.542 676.633 110.371Z" fill="#2D2D2D"/>
<path fill-rule="evenodd" clip-rule="evenodd" d="M679.424 107.161C678.569 106.059 673.749 106.64 671.586 106.898C670.927 106.979 670.826 106.402 671.42 105.988C675.258 103.273 681.557 104.057 682.292 104.967C683.027 105.882 682.101 112.227 678.493 115.255C677.94 115.72 677.412 115.472 677.658 114.855C678.468 112.823 680.285 108.268 679.424 107.161Z" fill="#2D2D2D"/>
<path fill-rule="evenodd" clip-rule="evenodd" d="M671.737 86.8222V84.1831C671.737 83.7837 672.039 83.5158 672.401 83.5158H684.159C684.536 83.5158 684.838 83.7888 684.838 84.1831V86.443C684.833 86.8222 684.516 87.3176 683.953 88.1012L677.86 96.8424C680.124 96.7868 682.514 97.1255 684.567 98.2883C685.029 98.5512 685.155 98.9354 685.19 99.3146V102.131C685.19 102.515 684.768 102.965 684.325 102.732C680.708 100.826 675.903 100.619 671.903 102.752C671.496 102.975 671.068 102.53 671.068 102.146V99.4713C671.068 99.0416 671.073 98.3085 671.501 97.6563L678.559 87.4844H672.416C672.039 87.4844 671.737 87.2165 671.737 86.8222Z" fill="#2D2D2D"/>
<path fill-rule="evenodd" clip-rule="evenodd" d="M628.846 103.288H625.268C624.926 103.263 624.655 103.005 624.629 102.676V84.2285C624.629 83.8595 624.936 83.5662 625.319 83.5662H628.654C629.001 83.5814 629.278 83.8494 629.303 84.183V86.5946H629.369C630.239 84.2639 631.874 83.177 634.078 83.177C636.317 83.177 637.716 84.2639 638.722 86.5946C639.587 84.2639 641.554 83.177 643.662 83.177C645.162 83.177 646.802 83.7988 647.803 85.1942C648.935 86.7462 648.704 89.001 648.704 90.9778L648.699 102.621C648.699 102.99 648.392 103.288 648.009 103.288H644.437C644.08 103.263 643.793 102.975 643.793 102.621V92.8433C643.793 92.0647 643.864 90.1234 643.693 89.3852C643.426 88.1466 642.626 87.7978 641.59 87.7978C640.724 87.7978 639.819 88.3792 639.451 89.3094C639.084 90.2396 639.119 91.7968 639.119 92.8433V102.621C639.119 102.99 638.812 103.288 638.43 103.288H634.858C634.496 103.263 634.214 102.975 634.214 102.621L634.209 92.8433C634.209 90.7857 634.546 87.7573 632.005 87.7573C629.434 87.7573 629.535 90.7098 629.535 92.8433V102.621C629.535 102.99 629.228 103.288 628.846 103.288" fill="#2D2D2D"/>
<path fill-rule="evenodd" clip-rule="evenodd" d="M694.961 83.177C700.269 83.177 703.142 87.7573 703.142 93.5814C703.142 99.2083 699.967 103.672 694.961 103.672C689.749 103.672 686.911 99.092 686.911 93.3842C686.911 87.6411 689.784 83.177 694.961 83.177ZM694.991 86.9434C692.355 86.9434 692.189 90.5531 692.189 92.8028C692.189 95.0576 692.154 99.8706 694.961 99.8706C697.733 99.8706 697.864 95.9879 697.864 93.6219C697.864 92.0647 697.799 90.2043 697.331 88.728C696.928 87.4439 696.128 86.9434 694.991 86.9434Z" fill="#2D2D2D"/>
<path fill-rule="evenodd" clip-rule="evenodd" d="M710.024 103.288H706.462C706.105 103.263 705.818 102.975 705.818 102.621L705.813 84.1679C705.843 83.8291 706.14 83.5662 706.502 83.5662H709.818C710.13 83.5814 710.386 83.7937 710.457 84.0819V86.9029H710.522C711.523 84.3802 712.927 83.177 715.397 83.177C717.002 83.177 718.567 83.7584 719.573 85.3509C720.509 86.8271 720.509 89.3094 720.509 91.094V102.707C720.469 103.03 720.172 103.288 719.82 103.288H716.233C715.906 103.263 715.634 103.02 715.599 102.707V92.6866C715.599 90.6694 715.83 87.7169 713.36 87.7169C712.489 87.7169 711.689 88.3034 711.292 89.1931C710.789 90.3205 710.723 91.4429 710.723 92.6866V102.621C710.718 102.99 710.406 103.288 710.024 103.288" fill="#2D2D2D"/>
<path fill-rule="evenodd" clip-rule="evenodd" d="M662.364 94.4763C662.364 95.8767 662.399 97.0445 661.695 98.2882C661.126 99.2993 660.221 99.9211 659.22 99.9211C657.846 99.9211 657.041 98.8696 657.041 97.3175C657.041 94.2538 659.773 93.6977 662.364 93.6977V94.4763ZM665.971 103.238C665.735 103.45 665.393 103.465 665.126 103.324C663.939 102.333 663.722 101.873 663.073 100.927C661.111 102.939 659.718 103.541 657.177 103.541C654.163 103.541 651.824 101.675 651.824 97.9394C651.824 95.0223 653.393 93.0354 655.637 92.0647C657.579 91.2053 660.291 91.0536 662.364 90.816V90.3509C662.364 89.4965 662.429 88.4854 661.926 87.7472C661.494 87.085 660.658 86.812 659.919 86.812C658.555 86.812 657.343 87.5147 657.046 88.9707C656.986 89.2943 656.749 89.6128 656.422 89.6279L652.956 89.2538C652.664 89.1881 652.337 88.9505 652.422 88.5005C653.217 84.274 657.021 83 660.422 83C662.163 83 664.437 83.4651 665.81 84.7897C667.551 86.4227 667.385 88.6016 667.385 90.9727V96.5743C667.385 98.2579 668.08 98.996 668.734 99.906C668.96 100.23 669.01 100.619 668.718 100.861C667.989 101.473 666.691 102.611 665.976 103.248L665.971 103.238" fill="#2D2D2D"/>
<path fill-rule="evenodd" clip-rule="evenodd" d="M615.468 94.4764C615.468 95.8768 615.503 97.0447 614.799 98.2884C614.23 99.2995 613.33 99.9213 612.324 99.9213C610.95 99.9213 610.15 98.8698 610.15 97.3177C610.15 94.254 612.882 93.6979 615.468 93.6979V94.4764ZM619.075 103.238C618.839 103.45 618.497 103.465 618.23 103.324C617.043 102.333 616.832 101.873 616.177 100.927C614.215 102.94 612.827 103.541 610.281 103.541C607.272 103.541 604.928 101.676 604.928 97.9395C604.928 95.0225 606.502 93.0356 608.741 92.0649C610.683 91.2055 613.395 91.0538 615.468 90.8162V90.3511C615.468 89.4967 615.533 88.4856 615.035 87.7474C614.598 87.0851 613.762 86.8121 613.028 86.8121C611.664 86.8121 610.447 87.5149 610.15 88.9709C610.09 89.2945 609.853 89.613 609.531 89.6281L606.06 89.254C605.768 89.1883 605.446 88.9507 605.526 88.5007C606.326 84.2742 610.125 83.0002 613.526 83.0002C615.267 83.0002 617.541 83.4653 618.914 84.7899C620.655 86.4229 620.489 88.6018 620.489 90.9729V96.5745C620.489 98.258 621.183 98.9962 621.838 99.9062C622.069 100.23 622.119 100.619 621.827 100.862C621.098 101.473 619.8 102.611 619.085 103.248L619.075 103.238" fill="#2D2D2D"/>
</g>
<g clip-path="url(#clip1_115_3030)">
<path d="M519.622 100.003C519.523 99.8986 519.405 99.8125 519.276 99.7493C518.347 99.1943 517.436 98.6117 516.484 98.1051C515.822 97.7628 515.134 97.4738 514.426 97.2407C513.562 96.9433 513.062 96.2811 513.178 95.3769C513.204 95.244 513.196 95.1066 513.154 94.9777C513.112 94.8489 513.038 94.7328 512.939 94.6404C512.616 94.3188 512.635 94.2566 513.1 93.9903C513.013 93.8052 512.941 93.6132 512.886 93.4163C512.861 93.2709 512.876 93.1213 512.931 92.9841C513.076 92.6141 513.266 92.2631 513.404 91.8914C513.51 91.6044 513.404 91.4315 513.059 91.4264C512.09 91.395 511.141 91.1481 510.28 90.7037C509.817 90.5047 509.366 90.2814 508.927 90.0346C508.2 89.5747 507.476 89.6421 506.741 89.9464C506.591 90.0086 506.492 90.1936 506.369 90.3233L506.435 90.4461L505.225 90.37C504.953 90.3527 504.647 90.2472 504.418 90.3371C504.006 90.4962 503.629 90.434 503.235 90.3596L501.527 90.0329C501.667 90.4495 501.437 90.4236 501.224 90.3786C500.878 90.3199 500.519 90.2299 500.163 90.1815C499.907 90.1452 499.644 90.1521 499.279 90.1366L499.649 90.6241C498.979 90.8982 498.243 90.9657 497.534 90.8182C496.826 90.6706 496.177 90.3146 495.673 89.796C494.635 88.6722 494.35 87.2666 494.226 85.8195C494.068 84.0024 494.521 82.3081 495.349 80.7002C495.436 80.5057 495.51 80.3059 495.571 80.102L495.432 80.0017C495.214 80.1201 495.005 80.256 494.808 80.408C493.865 81.2308 493.238 82.3561 493.034 83.5909C492.92 84.2825 492.948 84.9965 492.882 85.6968C492.87 85.8351 492.723 85.963 492.638 86.0944C492.531 85.9786 492.348 85.8696 492.334 85.7486C492.277 85.2507 492.268 84.7459 492.253 84.2445C492.243 83.9506 492.253 83.6584 492.253 83.2573C492.046 83.3921 491.871 83.5701 491.739 83.779C491.608 83.9879 491.523 84.2227 491.49 84.4675C491.202 85.9129 491.413 87.2718 492.263 88.5062C492.367 88.6826 492.46 88.8657 492.54 89.0543L492.367 89.158C492.128 88.9035 491.908 88.6313 491.71 88.3437C491.452 87.9132 491.266 87.4395 491.018 86.9986C490.912 86.8464 490.788 86.7071 490.648 86.5837C490.581 86.7756 490.508 86.9658 490.45 87.1594C490.442 87.2172 490.446 87.2762 490.462 87.3323C490.623 88.5322 491.178 89.6445 492.04 90.4945C493.055 91.5093 494.269 92.2113 495.572 92.7818C495.712 92.8441 495.93 92.9841 495.929 93.0844C495.947 93.7005 495.902 94.3169 495.795 94.9239C495.548 96.0201 494.461 96.3797 493.537 95.7279C492.967 95.3233 492.773 95.3129 492.279 95.8403C491.784 96.3665 491.151 96.7437 490.453 96.9295C489.817 97.1024 489.186 97.3133 488.551 97.5242C488.224 97.6295 487.904 97.7602 487.597 97.9149C487.478 97.9772 487.412 98.1449 487.322 98.2607L487.645 98.4872L487.127 98.8451L487.486 99.1338C487.449 99.1837 487.418 99.2376 487.393 99.2946C487.355 99.4156 487.327 99.5401 487.294 99.6629C487.429 99.6871 487.578 99.7597 487.694 99.7251C487.967 99.634 488.232 99.5213 488.487 99.388C489.544 98.8693 490.614 98.3506 491.648 97.7922C492.682 97.2338 493.626 97.3271 494.63 97.8907C495.196 98.2071 495.858 98.3679 496.49 98.5443C497.025 98.693 497.516 98.5149 497.943 98.1708C498.323 97.8631 498.697 97.5467 499.079 97.2389C499.37 96.9876 499.719 96.8137 500.095 96.7333C500.471 96.6529 500.861 96.6686 501.229 96.779C501.631 96.9076 502.024 97.0606 502.407 97.2372C503.164 97.5536 503.899 97.9288 504.673 98.195C505.862 98.6279 507.159 98.6655 508.372 98.3022C509.347 97.9962 510.147 98.0757 510.792 98.9194C511.105 99.324 511.484 99.4381 512.013 99.2808C513.2 98.9212 514.373 98.9488 515.481 99.5937C515.979 99.8842 516.477 100.176 516.992 100.431C517.473 100.662 517.966 100.865 518.47 101.041C518.636 101.08 518.809 101.067 518.968 101.005C519.127 100.944 519.263 100.836 519.359 100.695L519.895 100.486C519.817 100.318 519.726 100.156 519.622 100.003Z" fill="#2D2D2D"/>
<path d="M531.463 105.814C531.159 105.6 530.832 105.422 530.486 105.285C530 105.112 529.485 105.031 528.99 104.884C527.778 104.527 526.488 104.527 525.275 104.884C523.183 105.498 521.471 106.701 520.529 108.776C520.419 109.02 520.431 109.327 520.296 109.552C519.777 110.434 519.865 111.411 519.777 112.775C519.851 113.228 519.991 114.072 520.133 114.915C520.368 116.307 521.212 117.32 522.293 118.109C523.401 118.916 524.554 119.618 526.025 119.735C527.082 119.822 528.091 120.007 529.175 119.789C530.351 119.554 531.281 118.985 532.127 118.212C532.443 117.924 532.676 117.545 532.983 117.242C534.118 116.122 534.642 114.72 534.853 113.183C535.064 111.646 534.781 110.23 534.203 108.814C533.655 107.448 532.628 106.573 531.463 105.814ZM529.976 115.323C528.991 116.077 527.749 116.413 526.518 116.259C524.928 116.063 524.118 115.137 523.579 113.688C523.109 112.431 523.352 111.324 523.79 110.182C523.875 109.967 524.006 109.775 524.175 109.618C524.855 108.99 525.502 108.423 526.551 108.306C527.393 108.211 528.162 108.368 528.913 108.534C530.023 108.779 530.631 109.71 530.975 110.733C531.183 111.349 531.195 112.03 531.292 112.659C531.188 113.748 530.773 114.739 529.976 115.33V115.323Z" fill="#2D2D2D"/>
<path d="M506.478 86.0322C506.395 86.1342 506.37 86.4281 506.439 86.4817C506.739 86.6933 507.053 86.8862 507.378 87.0591C507.473 87.2061 507.587 87.4136 507.723 87.4239C508.211 87.4637 508.704 87.4395 509.231 87.4395L508.41 88.4198L508.74 88.5633L508.204 88.9834C508.334 89.0595 508.399 89.1079 508.472 89.1407C509.061 89.407 509.661 89.6508 510.239 89.9395C511.146 90.381 512.119 90.6729 513.119 90.8039C513.52 90.8627 513.79 90.7555 513.899 90.332C513.96 90.1096 514.043 89.894 514.148 89.6888C514.383 89.1822 514.716 88.7272 515.129 88.3503C515.541 87.9734 516.024 87.682 516.549 87.4931C517.772 87.0453 518.349 86.2016 518.223 84.9602C518.185 84.5816 517.993 84.4053 517.635 84.4312C517.233 84.4532 516.833 84.5023 516.437 84.5781C515.761 84.7165 515.209 84.5972 514.727 84.0595C514.186 83.4457 513.517 83.0394 512.635 83.1691C512.102 83.2368 511.563 83.119 511.107 82.8354C510.783 82.6521 510.436 82.4412 510.083 82.4032C508.942 82.2456 507.785 82.5301 506.847 83.1985C506.708 83.3236 506.58 83.4607 506.465 83.6082C506.726 83.6912 506.9 83.7414 507.068 83.8053C507.154 83.8382 507.301 83.9021 507.3 83.9454C507.284 84.3205 507.585 84.2911 507.801 84.3517C507.974 84.4018 508.147 84.4312 508.311 84.471L508.328 84.5903C507.932 84.8703 507.531 85.1418 507.144 85.434C506.9 85.6075 506.677 85.8082 506.478 86.0322ZM517.853 84.9464C517.853 85.0415 517.912 85.2403 517.839 85.3164C517.703 85.4681 517.521 85.5702 517.32 85.6068C517.172 85.634 517.019 85.6071 516.889 85.531C516.759 85.4548 516.66 85.3345 516.612 85.1919L517.853 84.9464Z" fill="#2D2D2D"/>
<path d="M490.761 101.368C490.961 101.34 491.157 101.288 491.345 101.214C491.902 100.913 492.452 100.6 492.986 100.263C493.712 99.8046 494.478 99.5021 495.348 99.5712C495.764 99.6139 496.178 99.6792 496.587 99.7666C497.751 99.9983 498.738 99.7355 499.561 98.8364C500.014 98.3764 500.495 97.945 501.001 97.545C501.236 97.3461 501.184 97.1663 500.948 97.1024C500.681 97.0133 500.393 97.0037 500.121 97.0747C499.801 97.1993 499.511 97.3929 499.274 97.6418C498.138 98.8053 496.854 99.343 495.215 98.8261C494.678 98.6597 494.124 98.5547 493.563 98.5131C493.195 98.4702 492.821 98.53 492.485 98.686C491.658 99.1338 490.842 99.6335 490.666 100.709L490.948 100.818L490.704 101.236L490.761 101.368Z" fill="#2D2D2D"/>
<path d="M515.147 95.2092C514.746 95.1833 514.348 95.1072 513.949 95.0761C513.674 95.0553 513.558 95.2057 513.591 95.4806C513.616 95.7933 513.749 96.0873 513.968 96.3114C514.188 96.5355 514.479 96.6753 514.791 96.7064C515.204 96.7531 515.623 96.7445 516.038 96.7825C517.051 96.8741 518.066 96.9658 519.077 97.0868C519.392 97.1248 519.689 97.2372 519.616 96.7497L520.279 96.8638L520.126 96.4039L520.799 96.3399C520.757 96.1595 520.658 95.9971 520.518 95.8763C520.377 95.7554 520.202 95.6823 520.017 95.6674C519.027 95.5135 518.029 95.4011 517.032 95.306C516.406 95.2455 515.778 95.2524 515.147 95.2092Z" fill="#2D2D2D"/>
<path d="M492.633 114.117C493.75 113.997 494.869 113.899 495.987 113.802C497.853 113.639 499.718 113.491 501.582 113.325C502.127 113.276 502.253 113.152 502.298 112.597C502.412 111.317 502.258 110.028 501.847 108.811C501.314 107.274 500.246 106.081 498.862 105.249C497.44 104.393 495.852 104.139 494.194 104.367C492.945 104.525 491.772 105.058 490.832 105.896C490.304 106.366 489.874 106.947 489.424 107.497C488.633 108.465 488.297 109.627 488.142 110.833C487.97 112.134 488.053 113.456 488.385 114.725C488.828 116.435 489.737 117.837 491.169 118.797C491.418 118.964 491.679 119.115 491.949 119.248C492.094 119.321 492.241 119.386 492.389 119.447C493.45 119.874 494.592 120.058 495.733 119.983C495.83 119.983 495.928 119.993 496.024 119.983C496.056 119.981 496.088 119.978 496.12 119.972C497.082 119.82 498.09 119.799 498.994 119.473C500.5 118.937 501.433 117.704 502.196 116.343C502.331 116.107 502.298 115.941 502.066 115.806C501.618 115.546 501.184 115.258 500.719 115.033C499.701 114.54 499.682 114.542 498.911 115.379C498.402 115.918 497.717 116.257 496.98 116.335C496.519 116.398 496.061 116.449 495.607 116.487C494.224 116.603 493.083 116.165 492.244 115.035C491.845 114.487 491.964 114.18 492.633 114.117ZM491.784 110.322C492.049 109.222 492.822 108.627 493.814 108.221C494.769 107.825 495.839 107.805 496.809 108.166C497.879 108.537 498.624 109.236 498.854 110.494C498.143 110.538 497.488 110.583 496.831 110.619C495.296 110.702 493.76 110.782 492.223 110.859C491.784 110.883 491.681 110.756 491.784 110.322Z" fill="#2D2D2D"/>
<path d="M486.146 114.267C485.91 113.515 485.538 112.884 484.883 112.415C484.71 112.293 484.507 112.147 484.749 111.897C485.132 111.508 485.431 111.045 485.628 110.536C485.824 110.027 485.913 109.483 485.891 108.938C485.891 108.154 485.744 107.49 485.225 106.916C484.015 105.576 482.611 104.652 480.707 104.692C479.67 104.715 478.615 104.637 477.569 104.616C476.867 104.602 476.164 104.616 475.462 104.604C475.177 104.604 475.069 104.701 475.066 105.012C475.052 106.895 475.011 108.779 474.979 110.664C474.953 112.244 474.933 113.823 474.902 115.403C474.902 115.69 474.826 115.975 474.836 116.267C474.864 117.07 474.917 117.87 474.959 118.672H474.914C474.914 118.932 474.931 119.191 474.914 119.45C474.883 119.805 475 119.955 475.374 119.905C475.643 119.868 475.915 119.862 476.186 119.886C478.126 120.059 480.064 119.952 481.995 119.791C484.105 119.618 485.508 118.498 486.183 116.48C486.41 115.758 486.398 114.981 486.146 114.267ZM478.529 108.676C478.529 108.33 478.665 108.157 479.06 108.211C479.392 108.237 479.726 108.24 480.059 108.219C480.438 108.256 480.953 108.294 481.465 108.359C481.795 108.401 482.064 108.603 482.07 108.933C482.075 109.356 482.016 109.776 481.897 110.182C481.848 110.274 481.778 110.353 481.692 110.413C481.607 110.473 481.509 110.512 481.406 110.527C480.566 110.621 479.718 110.662 478.873 110.719C478.827 110.729 478.78 110.727 478.735 110.714C478.69 110.701 478.649 110.678 478.615 110.646C478.581 110.614 478.555 110.574 478.54 110.53C478.525 110.486 478.52 110.439 478.527 110.392C478.527 109.824 478.524 109.25 478.529 108.676ZM481.283 116.354C480.792 116.44 480.285 116.445 479.786 116.487V116.414C479.454 116.414 479.124 116.414 478.793 116.414C478.567 116.414 478.496 116.312 478.505 116.096C478.527 115.507 478.551 114.917 478.544 114.329C478.535 114.276 478.538 114.221 478.552 114.169C478.567 114.117 478.592 114.069 478.628 114.028C478.663 113.987 478.707 113.954 478.756 113.932C478.805 113.91 478.859 113.899 478.913 113.9C479.8 113.823 480.688 113.738 481.577 113.7C481.98 113.683 482.362 114.236 482.419 114.813C482.5 115.659 482.118 116.209 481.283 116.354Z" fill="#2D2D2D"/>
<path d="M518.047 115.432C517.393 115.114 516.696 114.879 516.013 114.621C515.668 114.487 515.401 114.621 515.139 114.893C514.759 115.302 514.336 115.668 513.876 115.984C513.066 116.513 512.13 116.537 511.209 116.411C510.517 116.317 509.788 116.26 509.234 115.766C507.867 114.544 507.53 113 507.931 111.271C508.014 110.906 508.151 110.557 508.339 110.233C508.56 109.856 508.8 109.433 509.146 109.196C510.638 108.178 512.796 107.967 514.347 109.053C514.518 109.184 514.704 109.295 514.902 109.383C514.97 109.413 515.044 109.428 515.119 109.428C515.193 109.428 515.267 109.413 515.336 109.383C516.05 108.85 516.753 108.302 517.436 107.73C517.483 107.663 517.511 107.585 517.519 107.504C517.527 107.423 517.514 107.341 517.481 107.267C517.108 106.834 516.762 106.307 516.28 106.056C514.834 105.299 513.365 104.525 511.657 104.703C510.002 104.68 508.584 105.304 507.232 106.145C505.95 106.925 505.028 108.182 504.67 109.64C504.491 110.278 504.357 110.926 504.267 111.582C504.139 112.619 504.113 113.648 504.468 114.654C504.748 115.471 505.145 116.243 505.645 116.947C506.127 117.618 506.627 118.247 507.322 118.707C509.162 119.917 511.167 120.209 513.315 119.855C515.507 119.492 517.192 118.411 518.328 116.494C518.655 115.951 518.631 115.717 518.047 115.432Z" fill="#2D2D2D"/>
</g>
<g clip-path="url(#clip2_115_3030)">
<path d="M404.218 110.276C403.688 111.499 403.062 112.625 402.336 113.659C401.347 115.07 400.536 116.047 399.912 116.589C398.944 117.479 397.907 117.935 396.797 117.961C396 117.961 395.038 117.734 393.919 117.274C392.796 116.816 391.764 116.589 390.821 116.589C389.832 116.589 388.77 116.816 387.635 117.274C386.498 117.734 385.583 117.974 384.882 117.998C383.818 118.043 382.756 117.574 381.697 116.589C381.02 115.999 380.175 114.988 379.161 113.556C378.074 112.026 377.18 110.252 376.48 108.23C375.73 106.046 375.354 103.931 375.354 101.883C375.354 99.5377 375.861 97.5147 376.877 95.8194C377.674 94.4577 378.736 93.3835 380.064 92.595C381.393 91.8064 382.828 91.4046 384.374 91.3789C385.22 91.3789 386.329 91.6405 387.707 92.1547C389.082 92.6706 389.964 92.9322 390.351 92.9322C390.64 92.9322 391.621 92.6263 393.283 92.0164C394.854 91.4508 396.181 91.2166 397.268 91.3089C400.212 91.5465 402.425 92.7073 403.896 94.7986C401.262 96.3943 399.96 98.6293 399.985 101.496C400.009 103.73 400.819 105.588 402.412 107.064C403.133 107.748 403.939 108.278 404.836 108.654C404.641 109.218 404.436 109.758 404.218 110.276ZM397.464 83.7007C397.464 85.4511 396.825 87.0855 395.55 88.5982C394.012 90.3965 392.151 91.4357 390.134 91.2717C390.108 91.0617 390.093 90.8407 390.093 90.6085C390.093 88.9281 390.825 87.1298 392.124 85.6594C392.772 84.9149 393.597 84.2959 394.597 83.802C395.596 83.3156 396.54 83.0466 397.428 83.0005C397.453 83.2345 397.464 83.4685 397.464 83.7007V83.7007Z" fill="#2D2D2D"/>
</g>
<path fill-rule="evenodd" clip-rule="evenodd" d="M289.682 93.327C289.682 92.7011 289.178 92.1943 288.552 92.1943H286.877C286.25 92.1943 285.746 92.7033 285.746 93.3291V110.847C285.746 111.474 286.251 111.98 286.877 111.98H288.553C289.178 111.98 289.682 111.471 289.682 110.846V93.327ZM291.818 93.7924V94.6256C291.818 94.9692 292.099 95.2479 292.444 95.2479H303.999C304.527 95.2479 304.954 94.8224 304.954 94.2956V92.8857C304.954 92.3583 304.522 91.8814 303.999 91.9335C303.999 91.9335 292.827 93.0297 292.469 93.0696C292.289 93.0855 292.122 93.1688 292.001 93.3029C291.88 93.437 291.815 93.6119 291.818 93.7924ZM282.462 111.981C279.588 111.981 277.778 109.801 277.778 107.374L277.776 100.365H276.954C276.85 100.365 276.747 100.345 276.651 100.305C276.554 100.265 276.467 100.207 276.393 100.133C276.32 100.06 276.261 99.9724 276.221 99.8763C276.181 99.7802 276.161 99.6771 276.161 99.573V98.3998C276.161 97.9615 276.517 97.6086 276.957 97.6086L277.776 97.61L277.775 93.3006C277.775 92.6904 278.266 92.1958 278.878 92.1958H280.512C281.121 92.1958 281.615 92.694 281.615 93.3041V97.6108L284.161 97.61C284.599 97.61 284.957 97.9622 284.957 98.4012V99.5745C284.957 100.014 284.601 100.366 284.164 100.366L281.615 100.366L281.618 106.849C281.618 108.121 282.389 108.99 283.766 108.99H283.998C284.474 108.99 284.862 109.373 284.862 109.849V111.122C284.862 111.599 284.476 111.982 284 111.982H282.462V111.981ZM255.542 97.1047C250.895 97.1047 248.289 100.741 248.289 104.574C248.289 108.658 251.08 112.253 255.573 112.253C258.647 112.253 261.678 110.633 262.251 107.973C262.328 107.614 262.087 107.143 261.581 107.141L259.383 107.142C258.985 107.142 258.659 107.333 258.463 107.621C257.833 108.543 256.913 109.032 255.552 109.032C253.627 109.032 252.293 107.516 252.192 105.835H261.535C262.395 105.835 262.781 105.367 262.781 104.573C262.781 100.838 260.568 97.1047 255.542 97.1047ZM255.542 100.104C257.257 100.104 258.738 101.324 258.888 102.976H252.22C252.371 101.324 253.827 100.104 255.542 100.104ZM298.117 97.1047C293.469 97.1047 290.862 100.741 290.862 104.574C290.862 108.658 293.654 112.253 298.146 112.253C301.221 112.253 304.252 110.633 304.824 107.973C304.902 107.614 304.661 107.143 304.155 107.141L301.958 107.142C301.558 107.142 301.233 107.333 301.037 107.621C300.407 108.543 299.487 109.032 298.126 109.032C296.2 109.032 294.867 107.516 294.766 105.835H304.109C304.969 105.835 305.355 105.367 305.355 104.573C305.355 100.838 303.141 97.1047 298.117 97.1047ZM298.117 100.104C299.831 100.104 301.313 101.324 301.462 102.976H294.794C294.944 101.324 296.4 100.104 298.117 100.104Z" fill="#2D2D2D"/>
<path fill-rule="evenodd" clip-rule="evenodd" d="M274.634 92.3903H244.37C243.682 92.3903 243.127 92.9491 243.127 93.637L243.23 105.523C243.23 105.523 236.709 93.7425 236.369 93.1423C236.049 92.5771 235.363 92.056 234.412 92.056H231.924C231.235 92.056 230.678 92.6148 230.678 93.3027L230.68 110.734C230.68 111.422 231.236 111.98 231.924 111.98H233.52C233.851 111.979 234.168 111.847 234.401 111.613C234.634 111.379 234.765 111.062 234.765 110.731L234.664 98.5117C234.664 98.5117 241.248 110.408 241.53 110.877C241.91 111.511 242.553 111.98 243.484 111.98H245.77C246.46 111.98 247.015 111.422 247.015 110.734L247.013 95.3448H274.635C274.747 95.3451 274.857 95.3234 274.96 95.2809C275.064 95.2384 275.157 95.1759 275.236 95.0971C275.315 95.0183 275.378 94.9247 275.421 94.8217C275.464 94.7186 275.486 94.6082 275.486 94.4966V93.2385C275.485 93.0131 275.395 92.7972 275.235 92.6381C275.076 92.4791 274.859 92.3899 274.634 92.3903Z" fill="#2D2D2D"/>
<path fill-rule="evenodd" clip-rule="evenodd" d="M269.735 99.9587C271.051 99.9587 272.035 100.436 272.39 101.261C272.56 101.658 272.89 101.734 273.342 101.734H275.152C275.453 101.734 275.793 101.477 275.793 101.086C275.793 98.9815 273.286 97.1033 269.733 97.1033C266.058 97.1033 263.645 98.8546 263.645 101.642C263.645 103.776 265.33 105.046 267.403 105.588C268.348 105.836 269.961 106.233 270.746 106.439C271.593 106.662 272.35 106.92 272.35 107.646C272.35 108.79 271.142 109.18 269.826 109.18C268.577 109.18 267.334 108.622 266.978 107.732C266.77 107.216 266.41 107.141 265.861 107.141H264.021C263.7 107.141 263.33 107.417 263.33 107.836V108.072C263.33 110.109 266.062 112.241 269.829 112.241C272.5 112.241 276.223 111.131 276.223 107.548C276.223 105.472 274.835 104.035 272.576 103.462C271.692 103.238 269.569 102.698 269.107 102.578C268.283 102.365 267.516 102.096 267.516 101.391C267.516 100.322 268.503 99.9587 269.735 99.9587ZM202.742 88.3631C202.903 88.3631 203.057 88.2992 203.171 88.1855C203.284 88.0717 203.348 87.9174 203.348 87.7565C203.348 87.5957 203.284 87.4414 203.171 87.3276C203.057 87.2139 202.903 87.15 202.742 87.15C202.581 87.15 202.426 87.2139 202.313 87.3276C202.199 87.4414 202.135 87.5957 202.135 87.7565C202.135 87.9174 202.199 88.0717 202.313 88.1855C202.426 88.2992 202.581 88.3631 202.742 88.3631ZM194.596 87.289C194.731 87.289 194.861 87.2352 194.957 87.1395C195.053 87.0438 195.106 86.914 195.106 86.7786C195.106 86.6432 195.053 86.5134 194.957 86.4177C194.861 86.322 194.731 86.2682 194.596 86.2682C194.461 86.2682 194.331 86.322 194.235 86.4177C194.139 86.5134 194.086 86.6432 194.086 86.7786C194.086 86.914 194.139 87.0438 194.235 87.1395C194.331 87.2352 194.461 87.289 194.596 87.289ZM188.49 99.7684L188.241 99.5018C188.934 98.8582 189.667 97.8318 189.786 97.2295C189.897 96.6692 190.702 96.7583 190.549 97.3678C190.354 98.1468 189.4 99.0877 188.49 99.7684ZM183.321 87.5014C182.046 88.0531 181.859 89.3603 182.754 90.1451C183.832 91.0902 185.611 90.267 185.44 88.82C186.886 88.8941 187.819 87.4002 187.589 86.3509C188.232 85.7999 188.296 84.6224 187.524 84.1598C186.697 83.6644 185.918 83.854 185.422 84.8099C184.097 84.7137 182.827 85.7558 183.321 87.5014L182.707 87.2334C181.898 85.5412 183.315 83.8127 185.053 84.2111C185.179 83.9385 185.362 83.6963 185.591 83.5011C185.819 83.3058 186.086 83.1622 186.375 83.0799C186.664 82.9976 186.967 82.9786 187.264 83.0243C187.561 83.0699 187.844 83.1791 188.095 83.3444C189.21 84.0201 189.446 85.7636 188.26 86.609C188.82 88.2362 187.704 89.5656 186.007 89.4138C185.808 91.5065 183.834 91.7767 182.558 90.783C181.839 90.2221 181.544 89.4444 181.405 88.8578C181.259 88.237 181.259 87.681 180.646 87.0416C180.185 86.5591 179.359 86.5755 179.359 86.5755C179.359 85.0551 177.937 83.6637 176.171 84.3373C175.545 83.7984 174.772 83.745 174.218 84.4114C173.896 84.7985 173.719 85.8156 174.711 86.2818C174.66 87.6674 175.716 88.552 177.261 88.4294C177.322 89.1657 178.138 89.85 178.861 89.9476L178.855 90.3176C178.083 90.2435 177.665 90.5129 177.151 91.1508C175.335 91.0653 174.063 91.8729 174.116 93.1751C172.84 93.4175 172.602 94.7533 173.325 95.4646C174.049 96.176 175.109 95.8973 175.471 95.0476C176.758 95.2928 177.895 94.3705 177.947 93.3063C179.149 93.3063 179.675 92.8309 179.872 91.7253L180.326 91.7624C180.46 92.9528 179.909 94.0825 178.474 93.9478C178.437 95.3691 177.058 96.1639 175.771 95.6727C175.17 96.8011 173.794 97.2523 172.639 96.151C171.522 95.0875 171.93 93.2664 173.389 92.8252C173.423 91.4317 174.452 90.108 176.451 90.6184C176.451 90.6184 176.709 89.9961 177.334 89.9591C176.917 89.788 176.602 89.5578 176.515 89.1287C175.007 89.4501 173.726 88.0616 174.069 86.6638C172.708 85.9475 172.686 84.6032 173.361 83.8041C174.065 82.9723 175.237 82.7884 176.285 83.6851C178.061 82.7015 180.068 83.9061 179.945 85.929C181.187 85.8463 181.941 86.9319 181.803 88.0623C182.007 87.5641 182.247 87.3331 182.706 87.2334L183.321 87.5014Z" fill="#2D2D2D"/>
<path fill-rule="evenodd" clip-rule="evenodd" d="M186.372 85.0737L186.672 85.2882C186.09 86.517 185.059 87.8221 184.176 88.5399L183.839 88.2862C184.465 87.2683 185.808 85.5883 186.372 85.0737ZM177.684 91.823L177.887 92.1231C177.151 92.8772 175.79 93.883 175.067 94.2322L174.785 93.9257C175.484 93.1716 176.82 92.1844 177.684 91.823ZM179.444 88.1714L179.089 88.6105C178.126 87.979 176.225 86.2811 175.797 85.6688L176.096 85.363C177.017 85.8292 178.812 87.4301 179.444 88.1714ZM177.657 104.283C177.767 104.834 177.675 105.444 178.172 106.04C178.347 106.249 179.312 107.519 180.011 108.174C179.061 108.548 177.161 109.321 175.793 109.493C175.519 109.528 175.211 109.72 174.953 109.867C174.782 110.159 174.605 110.682 174.531 111.272C174.478 111.694 174.485 112.163 174.485 112.642C174.485 113.064 174.709 114.39 175.18 115.281C175.653 116.172 176.106 116.571 176.664 116.831C176.775 116.783 177.018 116.746 177.397 116.738C178.43 116.714 179.238 117.285 179.595 117.775C179.731 117.963 180.005 118 180.364 118C181.198 118 182.114 117.726 182.985 117.394C183.171 117.241 183.695 116.892 184.211 116.487C184.725 116.083 187.594 113.65 188.864 113.035C189.532 113.398 190.63 113.864 191.763 113.864C191.829 113.864 192.047 113.867 192.279 113.815C192.633 113.735 193.087 113.577 193.658 113.465C194.681 113.266 195.88 113.09 196.23 113.095C197.171 113.11 199.929 113.182 200.583 113.182C201.268 113.182 202.246 113.122 202.62 113.085C203.197 112.894 204.484 112.538 205.716 111.969C206.946 111.425 209.534 109.628 209.958 109.217C210.164 109.033 210.346 108.831 210.481 108.652C210.532 108.582 210.55 108.554 210.55 108.499L210.536 106.683C210.536 106.683 211.155 105.997 211.391 105.759C211.414 105.737 211.416 105.704 211.412 105.682C211.306 105.33 211.2 104.235 211.26 103.123L210.634 102.831C210.605 103.998 210.259 105.136 209.632 106.121C208.701 106.268 206.923 106.819 206.283 107.548L206.635 107.648C207.236 107.317 207.879 107.084 208.615 107.084C209.265 107.084 209.552 107.255 209.552 107.438C209.552 107.566 209.429 107.873 209.382 107.971C209.326 108.082 209.289 108.224 209.18 108.342C208.291 109.317 207.25 110.141 206.097 110.782C205.281 111.239 204.51 111.546 203.305 111.887C202.945 111.989 202.45 112.135 202.129 112.246C201.675 112.232 199.302 112.163 197.917 112.163C196.532 112.163 193.675 112.365 192.767 112.594C192.355 112.698 192.252 112.864 191.773 112.864C190.879 112.864 189.705 112.41 188.984 112.061C188.88 112.092 188.619 112.207 188.359 112.337C187.847 112.591 186.71 114.17 186.048 113.693C185.71 114.385 184.252 115.041 183.753 115.758C183.808 115.383 184.397 112.945 184.452 112.457C184.462 112.371 184.469 112.301 184.415 112.209C183.882 111.32 182.394 110.755 181.555 110.591C181.308 110.542 181.187 110.509 181.022 110.471L179.698 110.071L178.47 110.471L179.887 110.742L178.089 111.934C178.401 111.814 180.339 111.277 180.482 111.234C180.64 111.187 180.852 111.141 181.083 111.221C181.347 111.313 182.094 111.484 182.539 111.639C182.801 111.73 183.229 112.21 183.34 112.466C183.385 112.573 183.402 112.797 183.431 113.294C183.449 113.607 183.369 114.042 183.293 114.38C183.095 115.264 182.693 115.954 182.566 116.201C182.391 116.541 182.149 116.651 181.91 116.763C181.518 116.947 181.039 117.063 180.506 117.07C180.141 117.074 179.896 117.055 179.74 116.843C179.249 116.18 178.036 115.537 176.797 115.777C176.037 115.317 175.284 113.833 175.284 112.651C175.284 111.943 175.642 110.826 175.834 110.265C177.071 110.1 179.546 109.156 180.75 108.61C181.002 108.597 181.695 108.352 182.356 108.352C183.975 108.352 185.581 109.768 186.556 110.725C186.715 110.462 187.015 110.063 187.843 110.063C188.989 110.063 189.645 111.105 189.974 112.177L190.571 111.742C190.452 111.076 190.136 110.461 189.664 109.975C189.269 109.58 188.515 109.251 187.926 109.251C187.571 109.251 187.203 109.33 186.971 109.33C186.152 109.33 185.818 108.965 185.214 108.549C184.561 108.098 183.346 107.444 182.479 107.444C181.921 107.444 181.67 107.662 181.21 107.664C180.533 107.668 180.281 107.387 179.957 106.983C179.815 106.806 179.129 106.198 178.946 105.953C178.841 105.813 178.654 105.238 178.586 104.95L177.657 104.283Z" fill="#2D2D2D"/>
<path fill-rule="evenodd" clip-rule="evenodd" d="M178.588 104.95C178.785 105.16 178.975 105.392 179.22 105.581C179.458 105.76 179.758 105.916 180.039 106.076C180.437 106.301 180.888 106.559 181.336 106.701C181.728 106.819 182.237 106.868 182.715 106.868C183.395 106.868 184.199 106.727 184.864 107.037C185.31 107.246 185.34 107.717 185.694 107.854C186.246 108.069 187.779 108.119 188.629 108.119C190.311 108.119 192.132 107.906 193.207 107.648L192.683 107.07C191.939 107.189 189.755 107.427 188.753 107.427C187.34 107.427 186.007 107.201 186.007 106.616C186.007 106.213 186.442 105.629 187.269 105.629C188.158 105.629 189.502 106.166 189.75 106.24C189.998 106.314 190.1 106.294 190.256 106.222L190.776 105.953C190.085 105.632 187.681 104.805 186.844 104.805C186.447 104.805 186.233 104.862 185.976 105.193C185.654 105.607 184.796 105.984 183.425 105.984C182.674 105.984 181.599 105.85 181.363 105.753C180.95 105.583 180.142 105.114 179.625 104.741C178.959 104.26 178.379 103.727 177.98 103.105C177.864 102.927 177.804 102.719 177.805 102.506C177.806 102.344 177.852 102.194 177.868 102.075C177.987 102.24 178.116 102.36 178.281 102.515C179.004 103.219 180.072 103.748 181.17 103.958C181.483 104.018 181.761 104.065 182.07 104.065C182.538 104.065 182.971 103.814 183.246 103.568L182.815 103.067C182.676 103.109 182.388 103.109 182.198 103.109C180.605 103.109 178.582 102.066 178.116 100.861C178.07 100.743 178.014 100.677 178.061 100.568C178.107 100.456 178.165 100.222 178.198 100.006C178.292 100.113 178.484 100.275 178.729 100.432C179.321 100.812 180.451 101.338 180.672 101.476C181.241 101.312 181.67 101.121 182.008 100.946C182.412 100.734 182.861 100.622 183.318 100.619C184.482 100.619 185.821 101.283 187.078 101.903L187.936 101.564C186.821 100.78 184.393 99.6822 183.044 99.6822C182.248 99.6822 181.499 100.265 180.966 100.265C180.312 100.265 178.437 99.3508 178.437 98.5888C178.437 98.0029 179.65 97.6707 181.601 97.4305C181.262 97.9323 180.942 98.4473 180.644 98.9744L181.141 99.2503C184.196 94.8253 187.375 91.9521 190.048 90.2015C191.019 89.565 191.241 89.1936 191.58 88.4993C192.408 86.8065 193.19 85.5049 194.548 85.5049C195.183 85.5049 195.701 85.8606 196.056 86.3025L197.04 86.5962L196.044 87.2705L197.062 87.6746C195.734 88.0474 193.92 89.339 193.185 91.2343C191.77 91.3098 191.087 92.4553 190.624 93.4154C190.312 94.0626 189.816 94.3214 189.093 94.8111L183.306 98.8447L184.102 98.9545L189.448 95.3749C190.502 94.6635 191.004 94.1389 191.257 93.6335C191.753 92.642 192.287 91.905 193.335 91.905C193.85 91.905 194.402 92.126 194.843 92.5423L195.781 92.8488L194.757 93.4746L195.615 94.0013C193.163 94.7697 191.643 96.5267 190.76 99.8861L191.41 100.034C191.736 98.921 192.057 97.901 192.632 97.0007C194.053 96.9843 195.491 96.9323 196.903 96.9323C200.671 96.9323 203.799 97.0913 205.487 97.5881L204.889 96.551C203.083 96.2445 200.463 96.0855 196.903 96.0855C195.709 96.0855 194.5 96.1297 193.299 96.1425C194.074 95.3221 195.19 94.6321 196.909 94.099L195.689 93.4275L197.044 92.6763L195.198 91.9898C194.875 91.6997 194.474 91.4339 193.969 91.307C194.56 89.4908 196.573 88.4295 198.503 87.6982L197.151 87.1472L198.515 86.4009L196.416 85.7309C195.868 85.0872 195.339 84.7936 194.53 84.7936C192.583 84.7936 191.765 86.4843 190.993 87.9826C190.587 88.7716 190.329 89.1038 189.639 89.5564C188.142 90.5358 186.233 92.0333 184.411 93.9514C183.459 93.265 181.514 91.2585 180.985 90.1637C180.777 90.421 180.571 90.982 180.571 90.982C180.77 91.1922 183.062 93.5067 183.913 94.4874L183.72 94.7027C182.813 94.883 180.454 95.1097 179.652 95.0007L179.201 95.8004C179.801 95.7412 182.144 95.4654 183.116 95.4084C182.818 95.7693 182.529 96.138 182.251 96.5139C179.237 96.856 177.225 97.474 177.225 98.5874C177.225 98.7706 177.298 98.9787 177.298 99.1754C177.298 99.6416 177.124 99.8127 176.793 100.022C176.577 100.157 176.563 100.252 176.655 100.38C176.748 100.51 177.213 101.198 177.213 101.333C177.213 101.555 176.991 101.78 176.812 101.979C176.655 102.154 176.662 102.2 176.784 102.421L177.658 104.278L178.588 104.95ZM215.897 94.6129C215.704 94.8153 215.535 95.0313 215.392 95.2608L214.907 94.5794C216.528 92.4197 220.808 91.4061 223.319 91.2279V90.0696C223 90.168 222.657 90.2784 222.339 90.354C221.888 90.4623 221.475 90.5629 221.124 90.5536C220.774 90.545 220.489 90.4046 220.358 90.2172C220.021 89.736 220.334 89.009 221.437 88.329L220.567 87.6055C219.896 88.4765 219.234 89.4374 218.561 90.0112C217.95 90.5329 217.309 90.7931 216.791 90.4068C216.513 90.1986 216.408 90.1038 216.38 89.5607C216.417 88.7631 216.903 87.5442 217.33 86.7594L216.3 86.6383C216.117 87.84 215.625 88.865 215.097 89.7104C214.44 90.7653 213.592 91.5052 212.72 92.111L212.148 91.5472C212.852 91.1317 213.733 90.4559 214.34 89.5243C215.044 88.4423 215.615 87.1044 215.615 85.8891L218.595 86.1714C218.176 86.7031 217.486 87.9163 217.223 88.7873C217.087 89.2421 217.094 89.6034 217.258 89.7268C217.574 89.9634 218.127 89.5856 218.664 89.0104C219.421 88.1971 220.162 86.9704 220.489 86.5328L222.644 88.3204C221.686 88.8279 220.758 89.4074 220.943 89.7332C221.112 90.0297 221.725 89.9406 222.397 89.7346C222.954 89.5627 223.49 89.3296 223.995 89.0396V91.9521C222.957 91.9378 221.198 92.1317 219.503 92.6456C219.906 93.2144 221.063 93.4233 221.798 93.5245L221.429 95.8881C219.575 95.109 218.144 94.6557 215.897 94.6129L216.64 93.9742C218.297 94.0085 219.957 94.4896 220.898 94.9629L221.032 94.0683C220.185 93.9564 219.117 93.4746 218.665 92.9286C217.928 93.2059 217.229 93.5516 216.64 93.9742L215.897 94.6129Z" fill="#2D2D2D"/>
<path fill-rule="evenodd" clip-rule="evenodd" d="M207.018 102.122L207.708 100.632C206.897 99.6724 206.155 98.6562 205.487 97.5915L204.89 96.5544C203.51 93.9335 204.012 92.6811 203.276 91.5278C202.667 90.5748 199.711 91.1679 199.22 91.2705L200.076 89.8542L198.39 89.9882L199.818 88.2911C199.975 88.0701 200.048 87.8684 200.213 87.2796C200.466 86.3851 201.234 84.8583 203.484 84.8583C205.982 84.8583 206.756 86.879 207.845 87.7572C209.332 88.9583 210.767 90.2225 212.146 91.5464L212.718 92.1102C213.456 92.8643 214.211 93.6398 214.907 94.5785L215.392 95.26C218.399 99.6493 222.134 108.039 223.786 111.882C223.945 112.253 224.06 112.631 224.159 112.918C222.912 112.223 221.701 111.467 220.529 110.653L219.788 110.131C219.323 109.796 218.863 109.453 218.409 109.104L217.647 108.505C217.188 108.138 216.736 107.763 216.292 107.38L217.795 116.135C217.905 116.651 218.346 116.566 218.702 116.112C219.057 115.658 219.192 115.534 219.057 114.934L217.647 108.505L218.409 109.104L219.761 114.566C219.892 115.059 220.1 115.215 220.676 115.24C221.253 115.265 221.375 115.044 221.253 114.665L219.789 110.131L220.53 110.653L221.915 114.725C222.271 115.767 221.915 115.89 221.29 115.89C220.665 115.89 220.101 115.743 219.758 115.964C219.415 116.184 218.985 116.787 218.47 117.315C218.015 117.78 217.354 117.658 217.22 116.786L215.558 106.734C214.49 105.779 213.477 104.764 212.525 103.694C212.1 103.511 211.679 103.32 211.261 103.123L210.634 102.83C210.486 102.759 210.336 102.694 210.182 102.636C209.723 103.188 209.281 103.804 208.767 104.245C208.493 104.481 208.306 104.615 207.902 104.615C207.777 104.615 207.623 104.613 207.479 104.531C207.325 104.445 207.18 104.271 207.019 104.026C206.897 103.839 206.717 103.601 206.559 103.337C206.231 102.786 205.876 102.093 205.557 101.534C205.199 100.904 204.891 100.435 204.849 100.358C204.785 100.238 204.611 100.09 204.611 100.09C204.435 100.376 204.306 100.927 204.306 101.231L203.681 101.019C203.764 100.606 203.93 100.072 204.021 99.8146C204.021 99.5937 203.773 99.2993 203.571 99.2993C203.285 99.2993 202.992 99.6122 202.844 100.21L202.21 100.486C202.284 99.5203 202.614 98.4632 203.571 98.4632C204.343 98.4632 204.822 99.052 205.189 99.6037C205.556 100.154 206.762 101.8 207.018 102.122L207.497 102.728C207.58 103.106 207.74 103.325 207.818 103.446C207.984 103.704 208.168 103.686 208.416 103.455C208.529 103.351 208.894 103.054 209.246 102.686C209.553 102.366 209.851 101.978 209.971 101.781C210.321 101.939 210.975 102.252 211.501 102.483C209.244 99.7013 207.082 96.3256 206.145 94.0297C205.757 93.081 206.515 92.7631 206.881 93.6982C207.874 96.2365 210.78 100.724 212.913 103.077C215.379 105.798 219.902 109.736 222.844 111.318C222.418 110.485 221.854 109.29 221.204 107.905C217.625 105.881 214.008 102.164 212.322 98.9707L213.063 99.0562C214.633 101.831 218.381 105.533 220.595 106.609C218.571 102.313 215.936 96.868 213.88 94.5258C211.329 91.6212 208.543 89.3745 207.212 88.2055C205.901 87.053 205.36 85.6067 203.472 85.6067C201.915 85.6067 201.097 86.7279 200.784 87.8598C200.719 88.0808 200.683 88.2184 200.527 88.4479L199.791 89.331L201.382 89.1379L200.461 90.4251C200.461 90.4251 202.955 89.8656 203.828 91.0503C204.767 92.3276 204.161 93.7617 205.703 96.5494C206.382 97.7747 208.023 99.9779 208.571 100.467L207.496 102.728L207.018 102.122ZM182.513 102.508L182.136 102.252C182.453 101.998 182.802 101.787 183.174 101.625C183.375 101.543 183.588 101.498 183.805 101.493C184.228 101.493 184.592 101.669 184.948 101.859C185.51 102.158 186.142 102.51 186.626 102.51C186.809 102.51 186.988 102.467 187.196 102.467C187.675 102.467 188.135 102.681 188.398 102.681C188.557 102.681 188.668 102.538 188.772 102.388C189.036 102.008 189.4 101.726 189.866 101.532C190.366 101.323 190.966 101.24 191.62 101.24C192.135 101.24 192.629 101.314 192.886 101.369C192.886 101.369 192.493 101.843 192.395 101.947C191.875 101.947 190.885 101.929 190.249 102.187C189.859 102.344 189.719 102.571 189.719 102.895C189.719 103.363 190.242 103.547 190.825 103.724C191.169 103.828 191.554 103.853 191.879 103.853C192.28 103.853 193.048 103.703 193.806 103.536C194.722 103.334 195.573 103.093 195.822 103.002L196.153 103.596C195.133 103.941 194.091 104.268 193.124 104.465C192.577 104.576 192.056 104.644 191.592 104.644C190.815 104.644 189.973 104.319 189.28 103.989C188.695 103.71 188.174 103.435 187.708 103.435C187.184 103.435 186.692 103.616 186.206 103.893C185.969 104.029 185.253 104.523 184.615 104.773C184.125 104.967 183.726 105.075 183.23 105.075C182.788 105.075 182.524 105.012 182.295 104.834L183.064 104.364C183.163 104.461 183.34 104.479 183.45 104.479C183.561 104.479 183.692 104.465 183.994 104.34C184.166 104.267 184.417 104.113 184.564 104.019C184.868 103.823 184.968 103.708 185.088 103.614C185.32 103.43 185.406 103.186 185.109 102.922C184.964 102.785 184.806 102.662 184.638 102.555C184.372 102.396 184.18 102.241 183.7 102.241C183.132 102.239 182.732 102.395 182.513 102.508Z" fill="#2D2D2D"/>
<path fill-rule="evenodd" clip-rule="evenodd" d="M193.217 102.813C193.217 102.813 192.76 102.686 192.6 102.674C192.888 102.292 193.236 101.96 193.63 101.691C194.254 101.269 194.907 101.038 195.895 100.978C196.163 100.962 196.711 100.91 197.017 100.922C197.293 100.935 197.759 100.953 198.188 101.032C198.491 101.089 198.774 101.174 199.01 101.21C199.153 101.232 199.651 101.225 199.824 101.198C200.524 101.088 201.363 100.818 201.805 100.577L201.989 101.249C201.045 101.731 199.978 102.195 199.001 102.195C198.504 102.195 197.975 102.158 197.483 102.112C196.615 102.029 195.863 101.913 195.605 101.913C194.902 101.913 193.89 102.24 193.217 102.813ZM192.52 106.551L191.632 106.144C192.863 105.521 194.745 104.895 195.517 104.771C196.29 104.65 197.173 104.557 197.681 104.386C197.914 104.975 198.375 105.604 199.037 105.604C199.278 105.604 199.675 105.422 200.075 105.245C200.523 105.047 200.973 104.831 201.206 104.727C201.459 104.615 202.277 104.256 202.971 103.947C203.318 103.789 203.662 103.627 204.005 103.459L204.471 103.712C204.331 104.324 204.098 105.077 203.836 105.616C203.733 105.828 203.631 106.002 203.52 106.127C203.318 106.355 202.991 106.659 202.564 106.961C202.097 107.293 201.529 107.632 200.926 107.978C200.457 108.249 199.984 108.524 199.505 108.743L199.256 108.292C199.995 107.874 200.745 107.345 201.405 106.856C201.717 106.625 202.02 106.392 202.236 106.193C202.396 106.047 202.497 105.926 202.576 105.808C202.772 105.52 203.092 104.956 203.189 104.686C202.914 104.821 201.872 105.312 201.406 105.556C200.88 105.833 200.027 106.268 199.548 106.494C199.172 106.671 198.836 106.769 198.596 106.769C198.062 106.769 197.819 106.384 197.688 106.152C197.351 105.551 196.99 105.495 196.039 105.483C194.935 105.469 193.421 105.925 192.52 106.551ZM197.703 103.778C197.703 103.778 197.574 103.253 197.513 103.062C197.513 103.062 197.666 103.012 197.868 103.012C198.199 103.012 199.017 103.104 199.356 103.104C200.633 103.104 201.105 102.702 201.479 102.364C201.799 102.076 202.128 101.84 202.997 101.84C203.763 101.84 204.643 102.15 204.894 102.272L204.839 102.97C204.426 102.748 203.965 102.629 203.496 102.622C203.179 102.622 202.894 102.647 202.693 102.751C202.467 102.868 202.33 103.044 202.117 103.218C201.892 103.403 201.583 103.583 201.179 103.731C200.775 103.88 200.275 103.982 199.529 103.982C198.543 103.981 198.01 103.816 197.703 103.778Z" fill="#2D2D2D"/>
<path fill-rule="evenodd" clip-rule="evenodd" d="M189.614 109.045L190.202 108.802C190.742 109.01 191.522 109.247 192.064 109.247C192.391 109.247 192.66 109.13 192.882 109.031C193.056 108.953 195.017 107.991 195.991 107.638C196.3 107.526 196.614 107.464 196.767 107.464C197 107.464 197.014 107.568 197.079 107.675C197.263 107.969 198.712 110.036 198.858 110.195C200.086 109.818 201.345 109.265 202.07 108.569C202.826 107.84 203.454 106.996 204.061 106.343C204.295 106.091 204.584 105.863 204.727 105.786C205.355 105.452 207.308 105.424 208.13 105.461L207.643 106.15C206.196 106.15 205.386 106.299 205.022 106.573C204.868 106.689 204.635 106.923 204.414 107.211C203.92 107.856 203.38 108.737 203.164 108.91C203.588 109.204 204.051 109.461 204.786 109.461C206.012 109.461 206.89 108.694 207.371 108.261L207.783 108.506C207.479 108.901 207.13 109.306 206.686 109.608C206.194 109.943 205.573 110.159 205.206 110.261C204.494 110.127 202.928 109.81 202.561 109.737C201.206 110.289 198.999 111.182 198.257 111.405C198.094 111.446 197.926 111.472 197.758 111.484C197.172 111.516 196.357 111.512 195.615 111.503C195.088 111.496 194.59 111.499 194.34 111.453L193.686 110.771C194.263 110.881 194.488 110.914 195.026 110.914C196.302 110.914 197.122 110.701 197.393 110.632C197.62 110.574 197.658 110.442 197.59 110.236C197.483 109.909 197.294 109.598 197.007 109.266C196.81 109.053 196.595 108.857 196.363 108.683C196.188 108.563 196.016 108.533 195.535 108.697C195.089 108.849 193.705 109.598 193.108 109.916C192.813 110.073 192.584 110.119 192.054 109.993C191.493 109.861 190.152 109.371 189.614 109.045ZM193.452 93.6826C193.585 93.6826 193.713 93.6297 193.807 93.5354C193.901 93.4412 193.954 93.3134 193.954 93.1801C193.954 93.0468 193.901 92.919 193.807 92.8248C193.713 92.7305 193.585 92.6776 193.452 92.6776C193.319 92.6776 193.191 92.7305 193.097 92.8248C193.002 92.919 192.949 93.0468 192.949 93.1801C192.949 93.3134 193.002 93.4412 193.097 93.5354C193.191 93.6297 193.319 93.6826 193.452 93.6826Z" fill="#2D2D2D"/>
<defs>
<clipPath id="clip0_115_3030">
<rect width="115.581" height="35" fill="white" transform="translate(604.928 83)"/>
</clipPath>
<clipPath id="clip1_115_3030">
<rect width="60.0916" height="40" fill="white" transform="translate(474.836 80)"/>
</clipPath>
<clipPath id="clip2_115_3030">
<rect width="29.4812" height="35" fill="white" transform="translate(375.354 83)"/>
</clipPath>
</defs>
</svg>
